#!OML:ASF H:\Male1\Project 1\Capture day 1\Session 1\Male1.ASF
:FULLY-SPECIFIED
:DEGREES
1615
root 17.2796 14.8613 0.101866 558.578 -101.791 -562.742
lowerback 11.4144 -1.84915 -4.02836
upperback 8.15519 -3.14434 -0.058367
thorax 2.35756 -1.89613 2.47113
lowerneck -25.7388 5.09445 -10.05
upperneck 9.93693 -68.7981 -5.83538
head 216.957 -146.08 4.26117
rclavicle 1.90833e-014 -2.54444e-014
rhumerus -35.4312 -8.24244 -53.2586
rradius 74.3058
rwrist -34.2192
rhand -26.1349 -2.40291
rfingers 7.12502
rthumb 0.415422 -32.3822
lclavicle 1.90833e-014 -2.54444e-014
lhumerus 1.44642 0.340041 45.6535
lradius 50.3046
lwrist 10.8106
lhand -20.8547 8.93647
lfingers 7.12502
lthumb 5.51463 38.8447
rfemur -10.8793 -2.63537 28.3529
rtibia 41.8612
rfoot -32.9861 -27.7785
rtoes -12.6054
lfemur -20.5399 -12.0307 -14.7904
ltibia 48.8538
lfoot -17.1255 17.1357
ltoes 14.8538
1616
root 17.2707 14.9335 0.118642 559.341 -101.394 -563.05
lowerback 10.9937 -1.87769 -3.98127
upperback 7.83786 -3.14146 -0.117581
thorax 2.24203 -1.87277 2.37385
lowerneck -25.459 5.30387 -10.2344
upperneck 10.0875 -68.8263 -5.93604
head 216.995 -146.571 4.27596
rclavicle -5.56597e-015 -5.56597e-015
rhumerus -35.3409 -6.85373 -54.8278
rradius 73.0444
rwrist -34.0339
rhand -26.2192 -2.21459
rfingers 7.12502
rthumb 0.334032 -32.1941
lclavicle -5.56597e-015 -5.56597e-015
lhumerus 0.0303686 -0.787979 47.0628
lradius 49.8699
lwrist 11.0816
lhand -21.5255 9.43047
lfingers 7.12502
lthumb 4.86697 39.3546
rfemur -10.4667 -1.03737 28.4564
rtibia 40.4412
rfoot -33.2327 -28.4978
rtoes -11.6799
lfemur -20.0834 -11.7604 -14.8084
ltibia 47.3374
lfoot -16.8516 17.3497
ltoes 13.8404
1617
root 17.2578 15.002 0.141623 559.134 -100.822 -562.242
lowerback 10.4097 -1.8994 -4.07964
upperback 7.47312 -3.13118 -0.299198
thorax 2.16782 -1.84704 2.22406
lowerneck -25.1833 5.57897 -10.4055
upperneck 10.1208 -68.8087 -5.90886
head 217.07 -147.084 4.13585
rclavicle 4.33351e-014 -3.33958e-014
rhumerus -35.2178 -5.52467 -56.4469
rradius 71.7336
rwrist -33.7386
rhand -26.3682 -2.32365
rfingers 7.12502
rthumb 0.190119 -32.3033
lclavicle 4.33351e-014 -3.33958e-014
lhumerus -1.66091 -1.79131 48.4218
lradius 49.7635
lwrist 10.9037
lhand -21.0779 8.94334
lfingers 7.12502
lthumb 5.29917 38.8571
rfemur -10.1969 0.66847 28.2396
rtibia 39.1881
rfoot -33.684 -29.0475
rtoes -10.331
lfemur -19.6686 -11.7076 -15.1556
ltibia 45.819
lfoot -16.6569 17.8067
ltoes 13.1433
1618
root 17.243 15.0608 0.170125 556.98 -100.148 -559.518
lowerback 9.86642 -1.92815 -4.44364
upperback 7.10617 -3.15327 -0.573614
thorax 2.08464 -1.84622 2.13075
lowerneck -24.9265 5.90261 -10.5978
upperneck 9.97168 -68.5545 -5.72987
head 217.084 -147.796 3.97158
rclavicle -2.66371e-014 -9.54166e-015
rhumerus -34.9931 -4.44654 -57.9873
rradius 70.2834
rwrist -32.9742
rhand -26.131 -2.49766
rfingers 7.12502
rthumb 0.4192 -32.477
lclavicle -2.66371e-014 -9.54166e-015
lhumerus -3.37074 -2.39452 49.8904
lradius 49.7241
lwrist 10.1605
lhand -19.9075 7.9119
lfingers 7.12502
lthumb 6.42915 37.7943
rfemur -9.99427 2.29345 27.5898
rtibia 38.1812
rfoot -34.0945 -29.6548
rtoes -9.52198
lfemur -19.1403 -11.9469 -15.9591
ltibia 44.33
lfoot -16.3934 18.5456
ltoes 12.6945
1619
root 17.2287 15.11 0.201408 555.231 -99.2228 -557.247
lowerback 9.3007 -1.85597 -4.7366
upperback 6.72253 -3.03482 -0.842282
thorax 1.98413 -1.77234 1.99431
lowerneck -24.6374 6.18983 -10.6609
upperneck 9.85536 -68.1314 -5.60685
head 216.965 -148.501 3.99019
rclavicle 8.74653e-015 -6.36111e-015
rhumerus -34.7727 -3.61023 -59.4377
rradius 68.7982
rwrist -31.7488
rhand -25.6553 -2.43538
rfingers 7.12502
rthumb 0.878707 -32.4133
lclavicle 8.74653e-015 -6.36111e-015
lhumerus -5.094 -2.77737 51.4129
lradius 49.6909
lwrist 9.148
lhand -19.6614 6.71251
lfingers 7.12502
lthumb 6.66667 36.5876
rfemur -9.93112 4.12873 26.9787
rtibia 37.4135
rfoot -34.433 -30.286
rtoes -8.82871
lfemur -18.5685 -12.2324 -16.7401
ltibia 42.9362
lfoot -16.2645 19.6332
ltoes 12.4658
